<?xml version="1.0" encoding="utf-8"?>
<!-- Generator: Adobe Illustrator 24.1.1, SVG Export Plug-In . SVG Version: 6.00 Build 0)  -->
<svg version="1.1" id="Layer_1" xmlns="http://www.w3.org/2000/svg" xmlns:xlink="http://www.w3.org/1999/xlink" x="0px" y="0px"
	 viewBox="0 0 512 512" style="enable-background:new 0 0 512 512;" xml:space="preserve">
<style type="text/css">
	.st0{fill:#FABC3D;}
	.st1{fill:#F0F1F1;}
	.st2{fill:#FFFFFF;}
	.st3{fill:#40C9E7;}
	.st4{fill:#5B5C5F;}
	.st5{fill:#E2E4E5;}
	.st6{fill:#3E3E3F;}
	.st7{fill:#21B2D1;}
	.st8{fill:#818284;}
</style>
<g id="XMLID_1_">
	<circle id="XMLID_3_" class="st0" cx="256" cy="256" r="256"/>
	<path id="XMLID_4_" class="st1" d="M404.9,377.3c0,5.5-3.9,9.5-9.5,9.5H116.6c-5.5,0-9.5-3.9-9.5-9.5V190.6c0-5.5,3.9-9.5,9.5-9.5
		H219v-9.5c0-5.5,3.9-9.5,9.5-9.5h167.8c5.5,0,9.5,3.9,9.5,9.5v205.6H404.9z"/>
	<path id="XMLID_5_" class="st2" d="M228.4,163.1c-5.5,0-9.5,3.9-9.5,9.5v9.5H116.6c-5.5,0-9.5,3.9-9.5,9.5v185.9
		c0,1.6,0,3.2,0.8,3.9l218.2-218.2H228.4z"/>
	<path id="XMLID_6_" class="st2" d="M190.6,181.2h-65.4V167c0-2.4,2.4-4.7,4.7-4.7h55.9c2.4,0,4.7,2.4,4.7,4.7
		C190.6,167,190.6,181.2,190.6,181.2z"/>
	<path id="XMLID_7_" class="st3" d="M386,214.3c0,2.4-2.4,4.7-4.7,4.7h-46.5c-2.4,0-4.7-2.4-4.7-4.7v-27.6c0-2.4,2.4-4.7,4.7-4.7
		H382c2.4,0,4.7,2.4,4.7,4.7v27.6H386z"/>
	<circle id="XMLID_8_" class="st4" cx="153.6" cy="209.5" r="9.5"/>
	<rect id="XMLID_9_" x="134.7" y="163.1" class="st5" width="9.5" height="18.9"/>
	<rect id="XMLID_10_" x="153.6" y="163.1" class="st5" width="9.5" height="18.9"/>
	<rect id="XMLID_11_" x="172.5" y="163.1" class="st5" width="9.5" height="18.9"/>
	<rect id="XMLID_12_" x="107.1" y="237.1" class="st6" width="297.7" height="130"/>
	<polygon id="XMLID_13_" class="st4" points="107.1,237.1 107.1,367.9 121.3,367.9 252.1,237.1 	"/>
	<circle id="XMLID_14_" class="st2" cx="274.9" cy="293" r="74.8"/>
	<circle id="XMLID_15_" class="st7" cx="274.9" cy="293" r="55.9"/>
	<path id="XMLID_16_" class="st3" d="M274.9,237.1c-30.7,0-55.9,25.2-55.9,55.9c0,15.8,6.3,29.9,16.5,39.4l78.8-78.8
		C304,243.4,289.9,237.1,274.9,237.1z"/>
	<path id="XMLID_17_" class="st8" d="M181.2,321.4c0,5.5-3.9,9.5-9.5,9.5s-9.5-3.9-9.5-9.5v-18.9c0-5.5,3.9-9.5,9.5-9.5
		s9.5,3.9,9.5,9.5V321.4z"/>
</g>
</svg>
