<?xml version="1.0" encoding="utf-8"?>
<!-- Generator: Adobe Illustrator 27.2.0, SVG Export Plug-In . SVG Version: 6.00 Build 0)  -->
<svg version="1.1" id="Layer_1" xmlns="http://www.w3.org/2000/svg" xmlns:xlink="http://www.w3.org/1999/xlink" x="0px" y="0px"
	 viewBox="0 0 512 512" style="enable-background:new 0 0 512 512;" xml:space="preserve">
<style type="text/css">
	.st0{fill-rule:evenodd;clip-rule:evenodd;fill:#FEC957;}
	.st1{fill:#FEC957;}
	.st2{fill:#FFFFFF;}
</style>
<g>
	<path class="st0" d="M206.5,55.6c1.86-25.36,22.92-45.36,48.62-45.36c25.53,0,46.48,19.74,48.58,44.86c0.8,0.19,1.6,0.38,2.4,0.58
		c13.43-21.69,41.47-29.5,64.25-17.32c22.48,12.02,31.77,39.21,22.03,62.34c0.61,0.54,1.23,1.08,1.84,1.62
		c21.7-12.83,49.91-6.92,64.6,14.16c14.71,21.12,10.55,49.84-8.94,65.94c0.3,0.77,0.6,1.55,0.89,2.32
		c25.23-1.2,47.5,17.37,50.63,42.99c3.12,25.51-13.86,48.85-38.47,53.96c-0.09,0.82-0.18,1.64-0.28,2.45
		c23.02,10.77,34.14,37.79,24.9,61.98c-9.13,23.91-34.87,36.5-58.91,29.56c-0.46,0.68-0.92,1.36-1.38,2.04
		c15.26,20.09,12.85,48.92-6.16,66.13c-19.08,17.27-47.99,16.6-66.25-0.94c-0.72,0.39-1.45,0.78-2.18,1.17
		c4.23,25.02-11.38,49.47-36.28,55.71c-24.84,6.23-49.97-7.91-57.99-31.89c-0.76,0.01-1.52,0.01-2.28,0.01l-0.16,0
		c-7.84,24.26-33.15,38.63-58.14,32.36c-24.73-6.2-40.3-30.37-36.36-55.22c-0.73-0.38-1.46-0.76-2.19-1.14
		c-18.24,17.87-47.4,18.66-66.61,1.28c-18.88-17.1-21.38-45.66-6.46-65.73c-0.47-0.67-0.94-1.34-1.4-2.02
		c-24.17,7.24-50.19-5.35-59.38-29.42c-9.18-24.04,1.73-50.86,24.45-61.77c-0.11-0.81-0.21-1.63-0.31-2.45
		c-24.86-4.91-42.08-28.38-38.95-54.06c3.11-25.45,25.11-43.94,50.14-43.01c0.28-0.78,0.57-1.56,0.87-2.33
		c-19.81-16.04-24.12-45-9.32-66.26c14.59-20.95,42.53-26.92,64.18-14.41c0.6-0.55,1.21-1.09,1.82-1.64
		c-10.06-23.23-0.8-50.7,21.83-62.8c22.62-12.09,50.45-4.46,63.98,16.9C204.9,56,205.7,55.8,206.5,55.6z"/>
	<path class="st1" d="M206.5,55.6l10.21,0.75c0.74-10.05,5.26-18.99,12.16-25.47c6.91-6.47,16.07-10.39,26.24-10.4
		c10.1,0.01,19.21,3.88,26.11,10.27c6.89,6.41,11.43,15.25,12.26,25.2c0.37,4.41,3.56,8.11,7.86,9.12c0.76,0.18,1.52,0.36,2.28,0.55
		c4.32,1.07,8.82-0.76,11.17-4.55c7.21-11.65,19.76-18.22,32.69-18.22c6.09,0,12.23,1.45,18.02,4.54
		c6.54,3.5,11.61,8.56,15.11,14.52c3.49,5.96,5.36,12.82,5.36,19.76c0,5.06-0.98,10.16-3.04,15.05c-1.72,4.08-0.63,8.79,2.71,11.69
		c0.58,0.51,1.17,1.02,1.75,1.54c3.32,2.97,8.2,3.44,12.03,1.17c6.08-3.59,12.75-5.31,19.41-5.31c12.16,0.02,24.06,5.73,31.57,16.52
		c4.73,6.8,6.98,14.51,6.98,22.22c-0.01,11.32-4.89,22.42-14.04,29.98c-3.41,2.82-4.62,7.49-3.02,11.61
		c0.29,0.74,0.57,1.47,0.85,2.21c1.57,4.17,5.62,6.83,10.07,6.62c0.61-0.03,1.22-0.04,1.82-0.04c9.56,0,18.48,3.58,25.35,9.64
		c6.86,6.08,11.6,14.53,12.81,24.4c0.2,1.62,0.29,3.21,0.29,4.79c0.01,18.24-12.85,34.22-30.68,37.9c-4.36,0.91-7.62,4.49-8.1,8.92
		c-0.08,0.78-0.17,1.56-0.27,2.33c-0.53,4.39,1.82,8.62,5.83,10.5c13.81,6.44,22.25,20.41,22.25,35.15c0,4.62-0.82,9.3-2.58,13.9
		c-2.96,7.75-8.06,13.92-14.39,18.22c-6.33,4.29-13.86,6.66-21.57,6.65c-3.5,0-7.04-0.48-10.55-1.5c-4.28-1.23-8.85,0.43-11.34,4.13
		c-0.44,0.65-0.88,1.29-1.32,1.94c-2.51,3.64-2.4,8.48,0.28,12c5.28,6.95,7.88,15.21,7.88,23.49c-0.01,10.66-4.29,21.18-12.76,28.85
		c-7.39,6.68-16.53,9.93-25.73,9.94c-9.63-0.01-19.17-3.59-26.55-10.67c-3.21-3.08-8.07-3.74-11.98-1.61
		c-0.69,0.37-1.38,0.74-2.07,1.11c-3.91,2.06-6.05,6.4-5.32,10.76c0.37,2.18,0.55,4.35,0.55,6.49c0,8.68-2.93,17-8.06,23.68
		c-5.14,6.69-12.38,11.7-21.16,13.9c-3.14,0.79-6.27,1.16-9.34,1.16c-16.19,0.01-31.14-10.43-36.45-26.36
		c-1.41-4.22-5.37-7.04-9.82-6.99c-0.72,0.01-1.44,0.01-2.16,0.01h0.01l-0.16,0c-4.45,0-8.38,2.85-9.75,7.09
		c-5.2,16.15-20.25,26.74-36.57,26.74c-3.07,0-6.2-0.37-9.34-1.16c-8.78-2.21-16.02-7.22-21.16-13.9
		c-5.13-6.69-8.06-15.01-8.06-23.68c0-2.01,0.16-4.05,0.48-6.09c0.69-4.37-1.5-8.69-5.43-10.71c-0.7-0.36-1.39-0.72-2.08-1.09
		c-3.94-2.08-8.78-1.38-11.96,1.73c-7.43,7.27-17.08,10.94-26.84,10.95c-9.2-0.01-18.34-3.26-25.73-9.94
		c-8.47-7.67-12.75-18.19-12.76-28.85c0-8.16,2.53-16.29,7.65-23.18c2.64-3.55,2.7-8.39,0.16-12.01c-0.45-0.64-0.89-1.28-1.34-1.92
		c-2.52-3.67-7.11-5.29-11.38-4.01c-3.63,1.09-7.3,1.61-10.92,1.61c-7.71,0-15.24-2.36-21.57-6.65
		c-6.33-4.3-11.42-10.47-14.39-18.22c-1.76-4.6-2.58-9.28-2.58-13.9c0-14.61,8.29-28.47,21.89-34.98c3.99-1.91,6.29-6.17,5.72-10.56
		c-0.1-0.78-0.2-1.55-0.29-2.33c-0.52-4.42-3.82-7.98-8.19-8.84c-18.03-3.53-31.07-19.61-31.06-37.98c0-1.58,0.1-3.18,0.29-4.79
		c1.21-9.88,5.95-18.33,12.81-24.41c6.87-6.06,15.79-9.64,25.35-9.64c0.48,0,0.95,0.01,1.43,0.03c4.45,0.17,8.48-2.54,10-6.72
		c0.27-0.74,0.55-1.48,0.83-2.22c1.56-4.14,0.3-8.8-3.13-11.58c-9.35-7.56-14.34-18.78-14.34-30.23c0.01-7.7,2.25-15.42,6.98-22.22
		c7.52-10.79,19.42-16.5,31.57-16.52c6.54,0,13.09,1.66,19.08,5.12c3.86,2.23,8.73,1.7,12.02-1.3c0.57-0.52,1.15-1.04,1.73-1.56
		c3.3-2.94,4.35-7.66,2.59-11.72c-2.17-5-3.2-10.23-3.2-15.41c0-6.94,1.87-13.8,5.36-19.76c3.5-5.97,8.57-11.03,15.11-14.52
		c5.79-3.09,11.93-4.53,18.02-4.54c12.81,0.01,25.25,6.45,32.49,17.89c2.38,3.76,6.9,5.55,11.22,4.43c0.76-0.2,1.52-0.39,2.28-0.58
		c4.29-1.06,7.44-4.78,7.77-9.19L206.5,55.6l-2.45-9.94c-0.84,0.21-1.68,0.42-2.52,0.64l2.57,9.91l8.65-5.48
		c-11.1-17.52-30.14-27.42-49.79-27.41c-9.35,0-18.88,2.25-27.67,6.96c-9.95,5.31-17.81,13.14-23.13,22.24
		c-5.33,9.11-8.16,19.5-8.16,30.1c0,7.91,1.58,15.93,4.89,23.55l9.4-4.07l-6.81-7.65c-0.64,0.57-1.27,1.14-1.91,1.72l6.9,7.57
		l5.12-8.87c-9.16-5.3-19.31-7.87-29.32-7.86c-18.58-0.02-36.93,8.85-48.38,25.29c-7.19,10.31-10.66,22.21-10.66,33.92
		c-0.01,17.37,7.61,34.54,21.94,46.15l6.44-7.96l-9.58-3.62c-0.31,0.81-0.61,1.63-0.91,2.45l9.62,3.51l0.39-10.23
		c-0.74-0.03-1.47-0.04-2.2-0.04c-29.45,0.01-54.81,22.05-58.49,52.04c-0.3,2.44-0.44,4.87-0.44,7.28
		c0.01,28.1,19.81,52.57,47.57,58.07l1.98-10.05l-10.17,1.21c0.1,0.86,0.21,1.71,0.32,2.57l10.15-1.33l-4.43-9.23
		c-20.91,10.06-33.51,31.14-33.51,53.45c0,7.06,1.27,14.25,3.92,21.21c4.48,11.74,12.35,21.3,22.02,27.86
		c9.68,6.56,21.18,10.18,33.07,10.19c5.58,0,11.24-0.8,16.8-2.47l-2.94-9.81l-8.44,5.8c0.49,0.71,0.98,1.42,1.47,2.12l8.37-5.9
		l-8.22-6.11c-7.83,10.53-11.7,23.01-11.7,35.4c-0.01,16.15,6.59,32.35,19.5,44.03c11.24,10.18,25.43,15.25,39.48,15.24
		c14.9,0.01,29.81-5.67,41.17-16.79l-7.17-7.32l-4.79,9.05c0.76,0.4,1.53,0.81,2.3,1.2l4.68-9.11l-10.11-1.61
		c-0.49,3.12-0.74,6.23-0.74,9.31c0,13.29,4.47,25.96,12.29,36.15c7.8,10.19,19.04,17.95,32.43,21.3c4.78,1.2,9.59,1.77,14.32,1.77
		c25.17-0.01,48.06-16.23,56.06-40.92l-9.74-3.15l-0.01,10.24l0.16,0h0.01c0.8,0,1.59,0,2.39-0.01l-0.11-10.24l-9.71,3.25
		c8.17,24.37,30.89,40.34,55.87,40.35c4.73,0,9.54-0.58,14.32-1.77c13.39-3.35,24.63-11.11,32.43-21.3
		c7.81-10.19,12.28-22.85,12.29-36.15c0-3.28-0.27-6.59-0.83-9.9l-10.1,1.71l4.78,9.06c0.76-0.4,1.53-0.81,2.29-1.22l-4.89-9
		l-7.09,7.39c11.3,10.85,26.02,16.39,40.74,16.38c14.05,0.01,28.24-5.05,39.48-15.24c12.91-11.69,19.51-27.88,19.5-44.03
		c0-12.58-3.98-25.25-12.05-35.88l-8.15,6.19l8.43,5.81c0.49-0.71,0.97-1.42,1.45-2.13l-8.5-5.71l-2.84,9.84
		c5.37,1.55,10.83,2.3,16.22,2.3c11.89,0,23.39-3.62,33.07-10.19c9.67-6.56,17.54-16.12,22.02-27.86
		c2.66-6.96,3.93-14.15,3.92-21.21c0-22.49-12.82-43.75-34.05-53.7l-4.34,9.28l10.17,1.22c0.1-0.86,0.2-1.71,0.29-2.57l-10.18-1.1
		l2.08,10.03c27.46-5.73,46.98-30.05,46.99-57.95c0-2.41-0.15-4.84-0.44-7.28c-3.68-30-29.04-52.04-58.49-52.04
		c-0.93,0-1.86,0.02-2.79,0.07l0.48,10.23l9.58-3.61c-0.31-0.82-0.62-1.63-0.93-2.44l-9.54,3.72l6.52,7.89
		c14.03-11.6,21.48-28.58,21.47-45.77c0.01-11.71-3.47-23.61-10.66-33.92c-11.45-16.45-29.8-25.31-48.38-25.29
		c-10.2,0-20.54,2.66-29.84,8.16l5.21,8.81l6.82-7.64c-0.64-0.57-1.28-1.13-1.92-1.7l-6.73,7.72l9.44,3.98
		c3.14-7.45,4.65-15.28,4.65-23c0-10.6-2.83-21-8.16-30.1c-5.32-9.11-13.18-16.93-23.13-22.24c-8.8-4.71-18.32-6.96-27.67-6.96
		c-19.84-0.01-39.06,10.09-50.11,27.92l8.71,5.39l2.46-9.94c-0.84-0.21-1.68-0.41-2.52-0.61l-2.34,9.97l10.2-0.85
		c-1.26-15.18-8.24-28.76-18.73-38.51C284.68,5.99,270.54-0.01,255.11,0c-15.53-0.01-29.75,6.07-40.26,15.94
		c-10.52,9.86-17.45,23.59-18.57,38.91L206.5,55.6l-2.45-9.94L206.5,55.6z"/>
	<path class="st2" d="M194.56,157.7v15.36c5.99,0.01,11.27,2.38,15.21,6.3c3.92,3.94,6.29,9.22,6.3,15.21
		c-0.01,5.99-2.38,11.27-6.3,15.21c-3.94,3.92-9.22,6.29-15.21,6.3c-5.99-0.01-11.27-2.38-15.21-6.3c-3.92-3.94-6.29-9.22-6.3-15.21
		c0.01-5.99,2.38-11.27,6.3-15.21c3.94-3.92,9.22-6.29,15.21-6.3V157.7v-15.36c-14.37-0.01-27.53,5.87-36.93,15.3
		c-9.43,9.4-15.3,22.56-15.3,36.93c-0.01,14.37,5.87,27.53,15.3,36.93c9.4,9.43,22.56,15.3,36.93,15.3
		c14.37,0.01,27.53-5.87,36.93-15.3c9.43-9.4,15.3-22.56,15.3-36.93c0.01-14.37-5.87-27.53-15.3-36.93
		c-9.4-9.43-22.56-15.3-36.93-15.3V157.7z"/>
	<path class="st2" d="M317.44,280.58v15.36c5.99,0.01,11.27,2.38,15.21,6.3c3.92,3.94,6.29,9.22,6.3,15.21
		c-0.01,5.99-2.38,11.27-6.3,15.21c-3.94,3.92-9.22,6.29-15.21,6.3c-5.99-0.01-11.27-2.38-15.21-6.3c-3.92-3.94-6.29-9.22-6.3-15.21
		c0.01-5.99,2.38-11.27,6.3-15.21c3.94-3.92,9.22-6.29,15.21-6.3V280.58v-15.36c-14.37-0.01-27.53,5.87-36.93,15.3
		c-9.43,9.4-15.3,22.56-15.3,36.93c-0.01,14.37,5.87,27.53,15.3,36.93c9.4,9.43,22.56,15.3,36.93,15.3
		c14.37,0.01,27.53-5.87,36.93-15.3c9.43-9.4,15.3-22.56,15.3-36.93c0.01-14.37-5.87-27.53-15.3-36.93
		c-9.4-9.43-22.56-15.3-36.93-15.3V280.58z"/>
	<path class="st2" d="M340.99,149.29L149.29,340.99c-6,6-6,15.72,0,21.72s15.72,6,21.72,0l191.69-191.69c6-6,6-15.72,0-21.72
		C356.71,143.29,346.98,143.29,340.99,149.29"/>
</g>
</svg>
