<?xml version="1.0" encoding="utf-8"?>
<!-- Generator: Adobe Illustrator 24.1.1, SVG Export Plug-In . SVG Version: 6.00 Build 0)  -->
<svg version="1.1" id="Layer_1" xmlns="http://www.w3.org/2000/svg" xmlns:xlink="http://www.w3.org/1999/xlink" x="0px" y="0px"
	 viewBox="0 0 512 512" style="enable-background:new 0 0 512 512;" xml:space="preserve">
<style type="text/css">
	.st0{fill:#F5CF87;}
	.st1{fill:#4F5D73;}
	.st2{fill:#FFFFFF;}
	.st3{fill:#CBAC72;}
	.st4{fill:#465162;}
</style>
<g id="XMLID_1_">
	<path id="XMLID_3_" class="st0" d="M256,0c141,0,256,115,256,256S397,512,256,512S0,397,0,256S115,0,256,0"/>
	<path id="XMLID_4_" class="st1" d="M275.7,400.1c0,8.7-7.1,15.8-15.8,15.8h-96.1c-8.7,0-15.8-7.1-15.8-15.8V208
		c0-8.7,7.1-15.8,15.8-15.8h96.1c8.7,0,15.8,7.1,15.8,15.8V400.1"/>
	<path id="XMLID_5_" class="st2" d="M252.8,305.6c-6.3,6.3-15.8,6.3-22.1,0l-67.7-67.7c-6.3-6.3-6.3-15.8,0-22.1L299.3,79.6
		c6.3-6.3,15.8-6.3,22.1,0l67.7,67.7c6.3,6.3,6.3,15.8,0,22.1L252.8,305.6"/>
	<path id="XMLID_8_" class="st3" d="M133.9,267.8l-0.8,0.8c-6.3,6.3-6.3,15.8,0,22.1l15,15V282L133.9,267.8 M358.4,200.1l-82.7,82.7
		v23.6l83.5-83.5c6.3-6.3,6.3-15.8,0-22.1L358.4,200.1"/>
	<path id="XMLID_9_" class="st4" d="M148.1,282.8v23.6l52.8,52.8c3.2,3.2,7.1,4.7,11,4.7s7.9-1.6,11-4.7l52.8-52.8v-23.6l-22.8,22.8
		l0,0l-29.9,29.9c-3.2,3.2-7.1,4.7-11,4.7s-7.9-1.6-11-4.7L148.1,282.8"/>
	<path id="XMLID_10_" class="st1" d="M222.9,335.6c-6.3,6.3-15.8,6.3-22.1,0l-67.7-67.7c-6.3-6.3-6.3-15.8,0-22.1l136.3-136.3
		c6.3-6.3,15.8-6.3,22.1,0l67.7,67.7c6.3,6.3,6.3,15.8,0,22.1L222.9,335.6"/>
	<path id="XMLID_11_" class="st4" d="M211.9,208c-28.4,0-52,23.6-52,52c0,28.4,23.6,52,52,52s52-23.6,52-52
		C263.9,231.6,241,208,211.9,208"/>
	<circle id="XMLID_12_" class="st1" cx="211.9" cy="254.4" r="48"/>
</g>
</svg>
