<?xml version="1.0" encoding="utf-8"?>
<!-- Generator: Adobe Illustrator 24.1.1, SVG Export Plug-In . SVG Version: 6.00 Build 0)  -->
<svg version="1.1" id="Layer_1" xmlns="http://www.w3.org/2000/svg" xmlns:xlink="http://www.w3.org/1999/xlink" x="0px" y="0px"
	 viewBox="0 0 512 512" style="enable-background:new 0 0 512 512;" xml:space="preserve">
<style type="text/css">
	.st0{fill:#E0995E;}
	.st1{fill:#BA8152;}
	.st2{fill:#F5CF87;}
	.st3{fill:#CBAC72;}
	.st4{fill:#FFFFFF;}
</style>
<g id="XMLID_1_">
	<path id="XMLID_3_" class="st0" d="M256,0c141,0,256,115,256,256S397,512,256,512S0,397,0,256S115,0,256,0"/>
	<path id="XMLID_4_" class="st1" d="M96.1,208.7L96.1,208.7v134.7c0,9.5,7.1,16.5,15.8,16.5h288.3c8.7,0,15.8-7.9,15.8-16.5v-15.8
		c0,8.7-7.1,16.5-15.8,16.5H111.9c-8.7,0-15.8-7.1-15.8-16.5V208.7"/>
	<path id="XMLID_5_" class="st2" d="M415.9,326.9c0,8.7-7.1,16.5-15.8,16.5H111.9c-8.7,0-15.8-7.1-15.8-16.5V193
		c0-8.7,7.1-16.5,15.8-16.5h288.3c8.7,0,15.8,7.1,15.8,16.5V326.9"/>
	<path id="XMLID_6_" class="st3" d="M319,304H193c-7.1,0-12.6,5.5-12.6,11.8c0,6.3,5.5,11.8,12.6,11.8h126c7.1,0,12.6-5.5,12.6-11.8
		C331.6,309.6,326.1,304,319,304"/>
	<path id="XMLID_7_" class="st3" d="M159.9,304c-6.3,0-11.8,5.5-11.8,11.8c0,6.3,5.5,11.8,11.8,11.8s11.8-5.5,11.8-11.8
		C171.7,309.6,167,304,159.9,304"/>
	<path id="XMLID_8_" class="st3" d="M127.6,304c-6.3,0-11.8,5.5-11.8,11.8c0,6.3,5.5,11.8,11.8,11.8s11.8-5.5,11.8-11.8
		C140.2,309.6,134.7,304,127.6,304"/>
	<path id="XMLID_9_" class="st3" d="M384.4,304c-6.3,0-11.8,5.5-11.8,11.8c0,6.3,5.5,11.8,11.8,11.8c6.3,0,11.8-5.5,11.8-11.8
		C396.2,309.6,390.7,304,384.4,304"/>
	<path id="XMLID_10_" class="st3" d="M352.1,304c-6.3,0-11.8,5.5-11.8,11.8c0,6.3,5.5,11.8,11.8,11.8c6.3,0,11.8-5.5,11.8-11.8
		C363.9,309.6,358.4,304,352.1,304"/>
	<path id="XMLID_11_" class="st3" d="M159.9,270.2h-32.3c-6.3,0-11.8,5.5-11.8,11.8c0,6.3,5.5,11.8,11.8,11.8h32.3
		c6.3,0,11.8-5.5,11.8-11.8C171.7,275.7,166.2,270.2,159.9,270.2"/>
	<path id="XMLID_12_" class="st3" d="M384.4,270.2h-32.3c-6.3,0-11.8,5.5-11.8,11.8c0,6.3,5.5,11.8,11.8,11.8h32.3
		c6.3,0,11.8-5.5,11.8-11.8C396.2,275.7,390.7,270.2,384.4,270.2"/>
	<path id="XMLID_13_" class="st3" d="M159.9,240.2c-6.3,0-11.8,5.5-11.8,11.8s5.5,11.8,11.8,11.8s11.8-5.5,11.8-11.8
		S167,240.2,159.9,240.2"/>
	<path id="XMLID_14_" class="st3" d="M127.6,240.2c-6.3,0-11.8,5.5-11.8,11.8s5.5,11.8,11.8,11.8s11.8-5.5,11.8-11.8
		C140.2,245.8,134.7,240.2,127.6,240.2"/>
	<path id="XMLID_15_" class="st3" d="M384.4,240.2c-6.3,0-11.8,5.5-11.8,11.8s5.5,11.8,11.8,11.8c6.3,0,11.8-5.5,11.8-11.8
		S390.7,240.2,384.4,240.2"/>
	<path id="XMLID_16_" class="st3" d="M352.1,240.2c-6.3,0-11.8,5.5-11.8,11.8s5.5,11.8,11.8,11.8c6.3,0,11.8-5.5,11.8-11.8
		S358.4,240.2,352.1,240.2"/>
	<path id="XMLID_17_" class="st3" d="M159.9,208c-6.3,0-11.8,5.5-11.8,11.8c0,6.3,5.5,11.8,11.8,11.8s11.8-5.5,11.8-11.8
		C171.7,213.5,167,208,159.9,208"/>
	<path id="XMLID_18_" class="st3" d="M127.6,208c-6.3,0-11.8,5.5-11.8,11.8c0,6.3,5.5,11.8,11.8,11.8s11.8-5.5,11.8-11.8
		C140.2,213.5,134.7,208,127.6,208"/>
	<path id="XMLID_19_" class="st3" d="M223.7,270.2c-6.3,0-11.8,5.5-11.8,11.8c0,6.3,5.5,11.8,11.8,11.8c6.3,0,11.8-5.5,11.8-11.8
		C236.3,275.7,230.8,270.2,223.7,270.2"/>
	<path id="XMLID_20_" class="st3" d="M192.2,270.2c-6.3,0-11.8,5.5-11.8,11.8c0,6.3,5.5,11.8,11.8,11.8c6.3,0,11.8-5.5,11.8-11.8
		C204,275.7,198.5,270.2,192.2,270.2"/>
	<path id="XMLID_21_" class="st3" d="M223.7,240.2c-6.3,0-11.8,5.5-11.8,11.8s5.5,11.8,11.8,11.8c6.3,0,11.8-5.5,11.8-11.8
		C236.3,245.8,230.8,240.2,223.7,240.2"/>
	<path id="XMLID_22_" class="st3" d="M192.2,240.2c-6.3,0-11.8,5.5-11.8,11.8s5.5,11.8,11.8,11.8c6.3,0,11.8-5.5,11.8-11.8
		S198.5,240.2,192.2,240.2"/>
	<path id="XMLID_23_" class="st3" d="M223.7,208c-6.3,0-11.8,5.5-11.8,11.8c0,6.3,5.5,11.8,11.8,11.8c6.3,0,11.8-5.5,11.8-11.8
		C236.3,213.5,230.8,208,223.7,208"/>
	<path id="XMLID_24_" class="st3" d="M192.2,208c-6.3,0-11.8,5.5-11.8,11.8c0,6.3,5.5,11.8,11.8,11.8c6.3,0,11.8-5.5,11.8-11.8
		C204,213.5,198.5,208,192.2,208"/>
	<path id="XMLID_25_" class="st3" d="M288.3,270.2c-6.3,0-11.8,5.5-11.8,11.8c0,6.3,5.5,11.8,11.8,11.8c6.3,0,11.8-5.5,11.8-11.8
		C300.1,275.7,294.6,270.2,288.3,270.2"/>
	<path id="XMLID_26_" class="st3" d="M256,270.2c-6.3,0-11.8,5.5-11.8,11.8c0,6.3,5.5,11.8,11.8,11.8c6.3,0,11.8-5.5,11.8-11.8
		C267.8,275.7,262.3,270.2,256,270.2"/>
	<path id="XMLID_27_" class="st3" d="M288.3,240.2c-6.3,0-11.8,5.5-11.8,11.8s5.5,11.8,11.8,11.8c6.3,0,11.8-5.5,11.8-11.8
		S294.6,240.2,288.3,240.2"/>
	<path id="XMLID_28_" class="st3" d="M256,240.2c-6.3,0-11.8,5.5-11.8,11.8s5.5,11.8,11.8,11.8c6.3,0,11.8-5.5,11.8-11.8
		S262.3,240.2,256,240.2"/>
	<path id="XMLID_29_" class="st3" d="M288.3,208c-6.3,0-11.8,5.5-11.8,11.8c0,6.3,5.5,11.8,11.8,11.8c6.3,0,11.8-5.5,11.8-11.8
		C300.1,213.5,294.6,208,288.3,208"/>
	<path id="XMLID_30_" class="st3" d="M319.8,270.2c-6.3,0-11.8,5.5-11.8,11.8c0,6.3,5.5,11.8,11.8,11.8c6.3,0,11.8-5.5,11.8-11.8
		C331.6,275.7,326.9,270.2,319.8,270.2"/>
	<path id="XMLID_31_" class="st3" d="M319.8,240.2c-6.3,0-11.8,5.5-11.8,11.8s5.5,11.8,11.8,11.8c6.3,0,11.8-5.5,11.8-11.8
		S326.9,240.2,319.8,240.2"/>
	<path id="XMLID_32_" class="st3" d="M319.8,208c-6.3,0-11.8,5.5-11.8,11.8c0,6.3,5.5,11.8,11.8,11.8c6.3,0,11.8-5.5,11.8-11.8
		C331.6,213.5,326.9,208,319.8,208"/>
	<path id="XMLID_33_" class="st3" d="M256,208c-6.3,0-11.8,5.5-11.8,11.8c0,6.3,5.5,11.8,11.8,11.8c6.3,0,11.8-5.5,11.8-11.8
		C267.8,213.5,262.3,208,256,208"/>
	<path id="XMLID_34_" class="st3" d="M384.4,208c-6.3,0-11.8,5.5-11.8,11.8c0,6.3,5.5,11.8,11.8,11.8c6.3,0,11.8-5.5,11.8-11.8
		C396.2,213.5,390.7,208,384.4,208"/>
	<path id="XMLID_35_" class="st3" d="M352.1,208c-6.3,0-11.8,5.5-11.8,11.8c0,6.3,5.5,11.8,11.8,11.8c6.3,0,11.8-5.5,11.8-11.8
		C363.9,213.5,358.4,208,352.1,208"/>
	<path id="XMLID_36_" class="st4" d="M319,296.2H193c-7.1,0-12.6,5.5-12.6,11.8c0,6.3,5.5,11.8,12.6,11.8h126
		c7.1,0,12.6-5.5,12.6-11.8C331.6,301.7,326.1,296.2,319,296.2z"/>
	<circle id="XMLID_37_" class="st4" cx="159.9" cy="308" r="11.8"/>
	<circle id="XMLID_38_" class="st4" cx="127.6" cy="308" r="11.8"/>
	<circle id="XMLID_39_" class="st4" cx="384.4" cy="308" r="11.8"/>
	<circle id="XMLID_40_" class="st4" cx="352.1" cy="308" r="11.8"/>
	<path id="XMLID_41_" class="st4" d="M159.9,262.3h-32.3c-6.3,0-11.8,5.5-11.8,11.8c0,6.3,5.5,11.8,11.8,11.8h32.3
		c6.3,0,11.8-5.5,11.8-11.8C171.7,267.8,166.2,262.3,159.9,262.3z"/>
	<path id="XMLID_42_" class="st4" d="M384.4,262.3h-32.3c-6.3,0-11.8,5.5-11.8,11.8c0,6.3,5.5,11.8,11.8,11.8h32.3
		c6.3,0,11.8-5.5,11.8-11.8C396.2,267.8,390.7,262.3,384.4,262.3z"/>
	<circle id="XMLID_43_" class="st4" cx="159.9" cy="244.2" r="11.8"/>
	<circle id="XMLID_44_" class="st4" cx="127.6" cy="244.2" r="11.8"/>
	<circle id="XMLID_45_" class="st4" cx="384.4" cy="244.2" r="11.8"/>
	<circle id="XMLID_46_" class="st4" cx="352.1" cy="244.2" r="11.8"/>
	<circle id="XMLID_47_" class="st4" cx="159.9" cy="211.9" r="11.8"/>
	<circle id="XMLID_48_" class="st4" cx="127.6" cy="211.9" r="11.8"/>
	<circle id="XMLID_49_" class="st4" cx="223.7" cy="274.1" r="11.8"/>
	<circle id="XMLID_50_" class="st4" cx="192.2" cy="274.1" r="11.8"/>
	<circle id="XMLID_51_" class="st4" cx="223.7" cy="244.2" r="11.8"/>
	<circle id="XMLID_52_" class="st4" cx="192.2" cy="244.2" r="11.8"/>
	<circle id="XMLID_53_" class="st4" cx="223.7" cy="211.9" r="11.8"/>
	<circle id="XMLID_54_" class="st4" cx="192.2" cy="211.9" r="11.8"/>
	<circle id="XMLID_55_" class="st4" cx="288.3" cy="274.1" r="11.8"/>
	<circle id="XMLID_56_" class="st4" cx="256" cy="274.1" r="11.8"/>
	<circle id="XMLID_57_" class="st4" cx="288.3" cy="244.2" r="11.8"/>
	<circle id="XMLID_58_" class="st4" cx="256" cy="244.2" r="11.8"/>
	<circle id="XMLID_59_" class="st4" cx="288.3" cy="211.9" r="11.8"/>
	<circle id="XMLID_60_" class="st4" cx="319.8" cy="274.1" r="11.8"/>
	<circle id="XMLID_61_" class="st4" cx="319.8" cy="244.2" r="11.8"/>
	<circle id="XMLID_62_" class="st4" cx="319.8" cy="211.9" r="11.8"/>
	<circle id="XMLID_63_" class="st4" cx="256" cy="211.9" r="11.8"/>
	<circle id="XMLID_64_" class="st4" cx="384.4" cy="211.9" r="11.8"/>
	<circle id="XMLID_65_" class="st4" cx="352.1" cy="211.9" r="11.8"/>
</g>
</svg>
