<?xml version="1.0" encoding="utf-8"?>
<!-- Generator: Adobe Illustrator 24.1.1, SVG Export Plug-In . SVG Version: 6.00 Build 0)  -->
<svg version="1.1" id="Layer_1" xmlns="http://www.w3.org/2000/svg" xmlns:xlink="http://www.w3.org/1999/xlink" x="0px" y="0px"
	 viewBox="0 0 512 512" style="enable-background:new 0 0 512 512;" xml:space="preserve">
<style type="text/css">
	.st0{fill:#E0995E;}
	.st1{fill:#BA8152;}
	.st2{fill:#4F5D73;}
	.st3{fill:#FFFFFF;}
	.st4{fill:#727D8F;}
	.st5{fill:#C89A75;}
	.st6{fill:#E0E0D1;}
</style>
<g id="XMLID_1_">
	<path id="XMLID_3_" class="st0" d="M256,0c141,0,256,115,256,256S397,512,256,512S0,397,0,256S115,0,256,0"/>
	<path id="XMLID_4_" class="st1" d="M159.9,127.6L159.9,127.6v256c0,17.3,14.2,32.3,32.3,32.3h127.6c17.3,0,32.3-14.2,32.3-32.3
		v-15.8c0,11.8-6.3,22.1-15.8,27.6v0.8v-0.8c-4.7,2.4-10.2,3.9-15.8,3.9H192.2c-17.3,0-32.3-14.2-32.3-32.3L159.9,127.6"/>
	<path id="XMLID_5_" class="st2" d="M192.2,388.3c-11,0-19.7-8.7-19.7-19.7V111.9c0-11,8.7-19.7,19.7-19.7h127.6
		c11,0,19.7,8.7,19.7,19.7v256c0,11-8.7,19.7-19.7,19.7H192.2"/>
	<path id="XMLID_8_" class="st3" d="M319.8,104c4.7,0,7.9,3.2,7.9,7.9v256c0,4.7-3.2,7.9-7.9,7.9H192.2c-4.7,0-7.9-3.2-7.9-7.9v-256
		c0-4.7,3.2-7.9,7.9-7.9H319.8 M319.8,80.3H192.2c-17.3,0-32.3,14.2-32.3,32.3v256c0,17.3,14.2,32.3,32.3,32.3h127.6
		c17.3,0,32.3-14.2,32.3-32.3V111.9C352.1,94.5,337.9,80.3,319.8,80.3"/>
	<path id="XMLID_9_" class="st4" d="M319.8,104H215l111.1,269.4c0.8-1.6,1.6-3.2,1.6-5.5v-256C327.7,107.1,324.5,104,319.8,104"/>
	<path id="XMLID_10_" class="st5" d="M336.3,395.4C335.6,395.4,335.6,396.2,336.3,395.4v0.8V395.4"/>
	<path id="XMLID_11_" class="st3" d="M336.3,92.2h-126L215,104h104.8c4.7,0,7.9,3.2,7.9,7.9v256c0,2.4-0.8,3.9-1.6,5.5l9.5,22.8l0,0
		v-304"/>
	<polygon id="XMLID_12_" class="st3" points="319.8,400.1 192.2,400.1 159.9,336.3 352.1,336.3 	"/>
	<circle id="XMLID_13_" class="st6" cx="256" cy="367.9" r="15.8"/>
</g>
</svg>
