<?xml version="1.0" encoding="utf-8"?>
<!-- Generator: Adobe Illustrator 24.1.1, SVG Export Plug-In . SVG Version: 6.00 Build 0)  -->
<svg version="1.1" id="Layer_1" xmlns="http://www.w3.org/2000/svg" xmlns:xlink="http://www.w3.org/1999/xlink" x="0px" y="0px"
	 viewBox="0 0 512 512" style="enable-background:new 0 0 512 512;" xml:space="preserve">
<style type="text/css">
	.st0{fill:#E0995E;}
	.st1{fill:#BA8152;}
	.st2{fill:#4F5D73;}
	.st3{fill:#FFFFFF;}
	.st4{fill:#727D8F;}
	.st5{fill:#E0E0D1;}
</style>
<g id="XMLID_1_">
	<path id="XMLID_3_" class="st0" d="M256,0c141,0,256,115,256,256S397,512,256,512S0,397,0,256S115,0,256,0"/>
	<path id="XMLID_4_" class="st1" d="M136.3,136.3L136.3,136.3v256c0,17.3,14.2,32.3,32.3,32.3h175.7c17.3,0,32.3-14.2,32.3-32.3
		v-15.8c0,17.3-14.2,32.3-32.3,32.3H167.8c-17.3,0-32.3-14.2-32.3-32.3V136.3"/>
	<path id="XMLID_5_" class="st2" d="M167.8,396.2c-11,0-19.7-8.7-19.7-19.7V119.7c0-11,8.7-19.7,19.7-19.7h175.7
		c11,0,19.7,8.7,19.7,19.7v256c0,11-8.7,19.7-19.7,19.7H167.8"/>
	<path id="XMLID_8_" class="st3" d="M344.2,111.9c4.7,0,7.9,3.2,7.9,7.9v256c0,4.7-3.2,7.9-7.9,7.9H167.8c-4.7,0-7.9-3.2-7.9-7.9
		v-256c0-4.7,3.2-7.9,7.9-7.9H344.2 M344.2,88.2H167.8c-17.3,0-32.3,14.2-32.3,32.3v256c0,17.3,14.2,32.3,32.3,32.3h175.7
		c17.3,0,32.3-14.2,32.3-32.3V119.7C375.7,102.4,361.6,88.2,344.2,88.2"/>
	<path id="XMLID_9_" class="st4" d="M344.2,111.9H202.4l112.6,271.8h29.1c4.7,0,7.9-3.2,7.9-7.9v-256
		C352.1,115,348.9,111.9,344.2,111.9"/>
	<path id="XMLID_10_" class="st3" d="M360,100H197.7l4.7,11.8h141.8c4.7,0,7.9,3.2,7.9,7.9v256c0,4.7-3.2,7.9-7.9,7.9h-29.1
		l4.7,11.8c12.6-3.2,26.8-5.5,40.2-7.9L360,100"/>
	<polygon id="XMLID_11_" class="st3" points="360,400.1 159.9,400.1 152,344.2 360,344.2 	"/>
	<circle id="XMLID_12_" class="st5" cx="256" cy="375.7" r="15.8"/>
</g>
</svg>
